<?xml version="1.0" encoding="UTF-8"?>
<svg id="Layer_1" data-name="Layer 1" xmlns="http://www.w3.org/2000/svg" viewBox="0 0 300.11 144.42">
  <defs>
    <style>
      .cls-1 {
        fill: #5fb1be;
      }

      .cls-1, .cls-2 {
        stroke-width: 0px;
      }

      .cls-2 {
        fill: #ef7a42;
      }
    </style>
  </defs>
  <path class="cls-1" d="m75.41,47.57v-6.41h6.77v6.41h-6.77Zm6.62,41.83h-6.48v-35.14h6.48v35.14Z"/>
  <path class="cls-1" d="m150.66,89.4h-6.48v-48.17h6.48v48.17Z"/>
  <path class="cls-1" d="m196.12,89.4h-6.48v-48.17h6.48v48.17Z"/>
  <path class="cls-2" d="m300.11,144.07c-5.97-1.94-10.71-6.48-15.11-10.79-4.5-4.36-7.99-9.58-11.39-14.81-3.36-5.24-6.4-10.69-9.13-16.27-8.19-16.68-14.93-34.03-20.6-51.72-3.13-10.3-12.24-39.2-8.5-48.45.87-2.04,3.74-2.86,5.24-1.01,3.53,4.8,1.89,17.02,1.22,22.83-3.86,23.81-14.06,49.71-33.43,65.02-9.78,7.72-22.43,11.49-34.81,10.57,6.16.19,12.36-.6,18.16-2.58,29.63-10.41,42.81-44.72,47.04-73.44.78-5.86,1.47-12.13.49-17.91-.2-.91-.41-1.83-.91-2.48-.11-.12-.09-.06.02-.05-.02,0-.05,0-.08.03-.46.5-.6,1.29-.72,2.12-.33,2.76-.02,5.84.35,8.82,1.72,12.07,5.14,23.97,8.79,35.62,8.71,26.01,18.44,52.45,34.59,74.81,5.54,7.14,10.53,15.38,18.79,19.68h0Z"/>
  <path class="cls-2" d="m.09,54.14c.66-12.5,12.32-21.4,23.58-24.59,18.11-6.31,45.93,3.64,45.89,25.73-.65,24.84-27.87,38.1-49.85,39.01-6.58.07-16.5-.41-19.3-7.63-1.28-4.19.52-9.03,4.02-11.57,8.27-6.01,22.43-5.73,31.7-2.23,8.47,3.26,15,10.43,22.86,14.27,16.65,9.36,61.77,3.69,56.71-22.37-1.81-6.75-10.34-9.23-16.41-6.82-8.13,2.81-9.98,13.7-5.95,20.56,2.96,4.84,8.28,7.81,13.25,10.48,10.36,5.55,23.64,10.27,28.4,22.2,4.54,11.93-.94,27.34-13.31,31.88-9.62,3.83-20.31-.65-24.08-10.33-2.25-5.9-2.59-12.39-1.11-18.48,2.4-8.94,9.36-16.68,18.17-19.63,5.89-1.45,12.28-.91,17.96,1.11,4.16,1.66,8.17,3.71,12.71,4.08,1.46.12,3.02.26,4.4-.34-2.8,1.12-5.99.37-8.86-.17-2.96-.54-5.62-2.05-8.47-2.91-5.55-1.72-11.75-2.1-17.34-.51-5.41,1.98-9.96,6.19-13,11.03-3.1,4.89-4.27,10.71-3.62,16.43.57,5.51,2.39,11.25,6.72,14.84,4.25,3.54,10.37,4.08,15.46,2.09,13.58-4.97,17.38-25,7.02-34.93-6.26-6.29-14.59-9.5-22.44-13.69-5.42-2.91-11.06-6.1-14.42-11.6-3.25-5.63-3.34-12.99-.08-18.69,7.53-12.46,29.33-8.27,28.45,7.47-.84,20.88-26.77,26.16-43.65,25.5-6.12-.25-12.32-1.68-17.85-4.49-5.58-2.75-10.23-6.77-15.05-10.04-4.78-3.32-10.05-5.55-15.87-6.08-8.03-.89-24.58.13-23.64,11.24,1.19,6.11,11.47,6.47,16.52,6.37,11.55-.5,23.26-4.24,32.68-10.98,9.3-6.51,15.89-17.72,13.94-29.24-2.46-11.37-13.97-18.47-24.81-20.64C25.27,27.15,2.29,36,.09,54.14H.09Z"/>
  <path class="cls-2" d="m125.81,31.97c.35,3.2.97,6.3,2.01,9.13,2.04,10.8,10.53,12.77,20.03,9.81,7.17-2.15,28.64-10.97,32.5-1.32.67,1.72.53,3.42.25,4.99-.28-1.57-.75-3.14-1.64-4.21-4.42-4.43-15.71-1.08-21.24.47-6.25,1.82-12.19,4.76-18.93,4.26-11.83-.75-16.29-13.06-12.99-23.13h0Z"/>
  <path class="cls-1" d="m124.85,47.57v-6.41h6.77v6.41h-6.77Zm6.62,41.83h-6.48v-35.14h6.48v35.14Z"/>
  <path class="cls-1" d="m32.48,89.4h-6.48v-48.17h6.48v48.17Z"/>
  <path class="cls-1" d="m174.01,54.24v2.82c-.21-.69-.54-1.25-1.01-1.66-.86-.77-2.02-1.15-3.46-1.15h-2.59c-2.21,0-3.84.54-4.9,1.62-1.06,1.08-1.58,2.68-1.58,4.79v22.39c0,2.06.53,3.64,1.58,4.72,1.06,1.08,2.69,1.62,4.9,1.62h2.59c1.44,0,2.59-.38,3.46-1.15.46-.41.79-.97,1.01-1.66v2.82h6.48v-35.14h-6.48Zm-.58,29.34c-.38.36-.98.54-1.8.54h-2.52c-.86,0-1.44-.14-1.73-.43s-.43-.84-.43-1.66v-20.45c0-.86.14-1.43.43-1.69.29-.26.86-.4,1.73-.4h2.52c.82,0,1.42.19,1.8.58.38.38.58,1.03.58,1.94v19.58c0,.96-.19,1.62-.58,1.98Z"/>
  <path class="cls-1" d="m300.11,65.39v-4.68c0-2.11-.54-3.71-1.62-4.79s-2.8-1.62-5.15-1.62h-6.84c-2.3,0-4,.54-5.08,1.62s-1.62,2.68-1.62,4.79v22.39c0,2.06.54,3.64,1.62,4.72s2.77,1.62,5.08,1.62h6.84c2.35,0,4.07-.54,5.15-1.62s1.62-2.65,1.62-4.72v-4.75h-6.41v3.74c0,.82-.14,1.37-.43,1.66s-.86.43-1.73.43h-3.1c-.86,0-1.44-.14-1.73-.43s-.43-.84-.43-1.66v-20.45c0-.86.14-1.43.43-1.69.29-.26.86-.4,1.73-.4h3.1c.86,0,1.44.13,1.73.4.29.26.43.83.43,1.69v3.74h6.41Z"/>
  <path class="cls-1" d="m275.67,54.23c-1.3,0-2.39.31-3.28.94-.89.62-1.56,1.43-2.02,2.41-.17.36-.29.72-.4,1.08v-4.35h-6.48v35.14h6.48v-24.26c0-3.5,1.51-5.26,4.54-5.26h2.59v-5.69h-1.44Z"/>
  <rect class="cls-1" x="211.76" y="66.83" width="35.14" height="6.48"/>
</svg>